<?xml version="1.0" encoding="us-ascii" standalone="no"?><svg xmlns="http://www.w3.org/2000/svg" xmlns:xlink="http://www.w3.org/1999/xlink" contentStyleType="text/css" height="398px" preserveAspectRatio="none" style="width:519px;height:398px;background:#FFFFFF;" version="1.1" viewBox="0 0 519 398" width="519px" zoomAndPan="magnify"><defs/><g><text fill="#000000" font-family="sans-serif" font-size="14" font-weight="bold" lengthAdjust="spacing" textLength="120" x="192.75" y="26.0439">split into 4 pages</text><!--cluster net--><g id="cluster_net"><path d="M89,111.1201 L113,111.1201 A3.75,3.75 0 0 1 115.5,113.6201 L122.5,136.2402 L510,136.2402 A2.5,2.5 0 0 1 512.5,138.7402 L512.5,388.6201 A2.5,2.5 0 0 1 510,391.1201 L89,391.1201 A2.5,2.5 0 0 1 86.5,388.6201 L86.5,113.6201 A2.5,2.5 0 0 1 89,111.1201 " fill="none" style="stroke:#000000;stroke-width:1.5;"/><line style="stroke:#000000;stroke-width:1.5;" x1="86.5" x2="122.5" y1="136.2402" y2="136.2402"/><text fill="#000000" font-family="sans-serif" font-size="14" font-weight="bold" lengthAdjust="spacing" textLength="23" x="90.5" y="129.1641">net</text></g><!--cluster dummy--><g id="cluster_dummy"><path d="M363,157.1201 L413,157.1201 A3.75,3.75 0 0 1 415.5,159.6201 L422.5,182.2402 L486,182.2402 A2.5,2.5 0 0 1 488.5,184.7402 L488.5,364.6201 A2.5,2.5 0 0 1 486,367.1201 L363,367.1201 A2.5,2.5 0 0 1 360.5,364.6201 L360.5,159.6201 A2.5,2.5 0 0 1 363,157.1201 " fill="#DDDDDD" style="stroke:#000000;stroke-width:1.5;"/><line style="stroke:#000000;stroke-width:1.5;" x1="360.5" x2="422.5" y1="182.2402" y2="182.2402"/><text fill="#000000" font-family="sans-serif" font-size="14" font-weight="bold" lengthAdjust="spacing" textLength="49" x="364.5" y="175.1641">dummy</text></g><!--cluster unused--><g id="cluster_unused"><path d="M229,157.1201 L283,157.1201 A3.75,3.75 0 0 1 285.5,159.6201 L292.5,182.2402 L334,182.2402 A2.5,2.5 0 0 1 336.5,184.7402 L336.5,256.6201 A2.5,2.5 0 0 1 334,259.1201 L229,259.1201 A2.5,2.5 0 0 1 226.5,256.6201 L226.5,159.6201 A2.5,2.5 0 0 1 229,157.1201 " fill="none" style="stroke:#000000;stroke-width:1.5;"/><line style="stroke:#000000;stroke-width:1.5;" x1="226.5" x2="292.5" y1="182.2402" y2="182.2402"/><text fill="#000000" font-family="sans-serif" font-size="14" font-weight="bold" lengthAdjust="spacing" textLength="53" x="230.5" y="175.1641">unused</text></g><!--cluster foo--><g id="cluster_foo"><path d="M113,157.1201 L137,157.1201 A3.75,3.75 0 0 1 139.5,159.6201 L146.5,182.2402 L200,182.2402 A2.5,2.5 0 0 1 202.5,184.7402 L202.5,256.6201 A2.5,2.5 0 0 1 200,259.1201 L113,259.1201 A2.5,2.5 0 0 1 110.5,256.6201 L110.5,159.6201 A2.5,2.5 0 0 1 113,157.1201 " fill="none" style="stroke:#000000;stroke-width:1.5;"/><line style="stroke:#000000;stroke-width:1.5;" x1="110.5" x2="146.5" y1="182.2402" y2="182.2402"/><text fill="#000000" font-family="sans-serif" font-size="14" font-weight="bold" lengthAdjust="spacing" textLength="23" x="114.5" y="175.1641">foo</text></g><!--class Meeting--><g id="elem_Meeting"><rect codeLine="13" fill="#F1F1F1" height="48" id="Meeting" rx="2.5" ry="2.5" style="stroke:#181818;stroke-width:0.5;" width="82" x="376.5" y="195.1201"/><ellipse cx="391.5" cy="211.1201" fill="#ADD1B2" rx="11" ry="11" style="stroke:#181818;stroke-width:1.0;"/><path d="M390.9219,216.9795 Q388.8906,216.9795 387.7031,215.4795 Q386.5313,213.9795 386.5313,210.8701 Q386.5313,208.2295 387.7813,206.4639 Q389.0313,204.6826 391.1875,204.6826 Q391.7031,204.6826 392.2344,204.8232 Q392.6719,205.0107 392.9219,205.0107 Q393.1094,205.0107 393.2031,204.9795 Q393.2969,204.9326 393.8438,204.2139 L394.6563,208.1826 L393.6094,208.4951 Q393.1563,206.9951 392.5625,206.417 Q391.9844,205.8232 391.0625,205.8232 Q389.8906,205.8232 389.1875,207.2295 Q388.4844,208.6201 388.4844,210.792 Q388.4844,213.1826 389.0781,214.4482 Q389.6875,215.6982 391,215.6982 Q391.9219,215.6982 392.5938,215.0264 Q393.2656,214.3389 393.5938,212.7607 L394.6406,213.2607 Q394.2344,215.0264 393.25,216.0107 Q392.2656,216.9795 390.9219,216.9795 Z " fill="#000000"/><text fill="#000000" font-family="sans-serif" font-size="14" lengthAdjust="spacing" textLength="50" x="405.5" y="217.604">Meeting</text><line style="stroke:#181818;stroke-width:0.5;" x1="377.5" x2="457.5" y1="227.1201" y2="227.1201"/><line style="stroke:#181818;stroke-width:0.5;" x1="377.5" x2="457.5" y1="235.1201" y2="235.1201"/></g><!--class Person--><g id="elem_Person"><rect codeLine="14" fill="#F1F1F1" height="48" id="Person" rx="2.5" ry="2.5" style="stroke:#181818;stroke-width:0.5;" width="77" x="377" y="303.1201"/><ellipse cx="392" cy="319.1201" fill="#ADD1B2" rx="11" ry="11" style="stroke:#181818;stroke-width:1.0;"/><path d="M391.4219,324.9795 Q389.3906,324.9795 388.2031,323.4795 Q387.0313,321.9795 387.0313,318.8701 Q387.0313,316.2295 388.2813,314.4639 Q389.5313,312.6826 391.6875,312.6826 Q392.2031,312.6826 392.7344,312.8232 Q393.1719,313.0107 393.4219,313.0107 Q393.6094,313.0107 393.7031,312.9795 Q393.7969,312.9326 394.3438,312.2139 L395.1563,316.1826 L394.1094,316.4951 Q393.6563,314.9951 393.0625,314.417 Q392.4844,313.8232 391.5625,313.8232 Q390.3906,313.8232 389.6875,315.2295 Q388.9844,316.6201 388.9844,318.792 Q388.9844,321.1826 389.5781,322.4482 Q390.1875,323.6982 391.5,323.6982 Q392.4219,323.6982 393.0938,323.0264 Q393.7656,322.3389 394.0938,320.7607 L395.1406,321.2607 Q394.7344,323.0264 393.75,324.0107 Q392.7656,324.9795 391.4219,324.9795 Z " fill="#000000"/><text fill="#000000" font-family="sans-serif" font-size="14" lengthAdjust="spacing" textLength="45" x="406" y="325.604">Person</text><line style="stroke:#181818;stroke-width:0.5;" x1="378" x2="453" y1="335.1201" y2="335.1201"/><line style="stroke:#181818;stroke-width:0.5;" x1="378" x2="453" y1="343.1201" y2="343.1201"/></g><!--class Person--><g id="elem_Person"><rect codeLine="21" fill="#F1F1F1" height="48" id="Person" rx="2.5" ry="2.5" style="stroke:#181818;stroke-width:0.5;" width="77" x="243" y="195.1201"/><ellipse cx="258" cy="211.1201" fill="#ADD1B2" rx="11" ry="11" style="stroke:#181818;stroke-width:1.0;"/><path d="M257.4219,216.9795 Q255.3906,216.9795 254.2031,215.4795 Q253.0313,213.9795 253.0313,210.8701 Q253.0313,208.2295 254.2813,206.4639 Q255.5313,204.6826 257.6875,204.6826 Q258.2031,204.6826 258.7344,204.8232 Q259.1719,205.0107 259.4219,205.0107 Q259.6094,205.0107 259.7031,204.9795 Q259.7969,204.9326 260.3438,204.2139 L261.1563,208.1826 L260.1094,208.4951 Q259.6563,206.9951 259.0625,206.417 Q258.4844,205.8232 257.5625,205.8232 Q256.3906,205.8232 255.6875,207.2295 Q254.9844,208.6201 254.9844,210.792 Q254.9844,213.1826 255.5781,214.4482 Q256.1875,215.6982 257.5,215.6982 Q258.4219,215.6982 259.0938,215.0264 Q259.7656,214.3389 260.0938,212.7607 L261.1406,213.2607 Q260.7344,215.0264 259.75,216.0107 Q258.7656,216.9795 257.4219,216.9795 Z " fill="#000000"/><text fill="#000000" font-family="sans-serif" font-size="14" lengthAdjust="spacing" textLength="45" x="272" y="217.604">Person</text><line style="stroke:#181818;stroke-width:0.5;" x1="244" x2="319" y1="227.1201" y2="227.1201"/><line style="stroke:#181818;stroke-width:0.5;" x1="244" x2="319" y1="235.1201" y2="235.1201"/></g><!--class foo1--><g id="elem_foo1"><rect codeLine="25" fill="#F1F1F1" height="48" id="foo1" rx="2.5" ry="2.5" style="stroke:#181818;stroke-width:0.5;" width="60" x="126.5" y="195.1201"/><ellipse cx="141.5" cy="211.1201" fill="#ADD1B2" rx="11" ry="11" style="stroke:#181818;stroke-width:1.0;"/><path d="M140.9219,216.9795 Q138.8906,216.9795 137.7031,215.4795 Q136.5313,213.9795 136.5313,210.8701 Q136.5313,208.2295 137.7813,206.4639 Q139.0313,204.6826 141.1875,204.6826 Q141.7031,204.6826 142.2344,204.8232 Q142.6719,205.0107 142.9219,205.0107 Q143.1094,205.0107 143.2031,204.9795 Q143.2969,204.9326 143.8438,204.2139 L144.6563,208.1826 L143.6094,208.4951 Q143.1563,206.9951 142.5625,206.417 Q141.9844,205.8232 141.0625,205.8232 Q139.8906,205.8232 139.1875,207.2295 Q138.4844,208.6201 138.4844,210.792 Q138.4844,213.1826 139.0781,214.4482 Q139.6875,215.6982 141,215.6982 Q141.9219,215.6982 142.5938,215.0264 Q143.2656,214.3389 143.5938,212.7607 L144.6406,213.2607 Q144.2344,215.0264 143.25,216.0107 Q142.2656,216.9795 140.9219,216.9795 Z " fill="#000000"/><text fill="#000000" font-family="sans-serif" font-size="14" lengthAdjust="spacing" textLength="28" x="155.5" y="217.604">foo1</text><line style="stroke:#181818;stroke-width:0.5;" x1="127.5" x2="185.5" y1="227.1201" y2="227.1201"/><line style="stroke:#181818;stroke-width:0.5;" x1="127.5" x2="185.5" y1="235.1201" y2="235.1201"/></g><!--class BaseClass--><g id="elem_BaseClass"><rect codeLine="10" fill="#F1F1F1" height="48" id="BaseClass" rx="2.5" ry="2.5" style="stroke:#181818;stroke-width:0.5;" width="99" x="7" y="47.1201"/><ellipse cx="22" cy="63.1201" fill="#ADD1B2" rx="11" ry="11" style="stroke:#181818;stroke-width:1.0;"/><path d="M21.4219,68.9795 Q19.3906,68.9795 18.2031,67.4795 Q17.0313,65.9795 17.0313,62.8701 Q17.0313,60.2295 18.2813,58.4639 Q19.5313,56.6826 21.6875,56.6826 Q22.2031,56.6826 22.7344,56.8232 Q23.1719,57.0107 23.4219,57.0107 Q23.6094,57.0107 23.7031,56.9795 Q23.7969,56.9326 24.3438,56.2139 L25.1563,60.1826 L24.1094,60.4951 Q23.6563,58.9951 23.0625,58.417 Q22.4844,57.8232 21.5625,57.8232 Q20.3906,57.8232 19.6875,59.2295 Q18.9844,60.6201 18.9844,62.792 Q18.9844,65.1826 19.5781,66.4482 Q20.1875,67.6982 21.5,67.6982 Q22.4219,67.6982 23.0938,67.0264 Q23.7656,66.3389 24.0938,64.7607 L25.1406,65.2607 Q24.7344,67.0264 23.75,68.0107 Q22.7656,68.9795 21.4219,68.9795 Z " fill="#000000"/><text fill="#000000" font-family="sans-serif" font-size="14" lengthAdjust="spacing" textLength="67" x="36" y="69.604">BaseClass</text><line style="stroke:#181818;stroke-width:0.5;" x1="8" x2="105" y1="79.1201" y2="79.1201"/><line style="stroke:#181818;stroke-width:0.5;" x1="8" x2="105" y1="87.1201" y2="87.1201"/></g><!--reverse link Meeting to Person--><g id="link_Meeting_Person"><path codeLine="15" d="M404.3173,254.9484 C401.2973,272.6084 402.85,285.0601 405.17,302.8001 " fill="none" id="Meeting-backto-Person" style="stroke:#181818;stroke-width:1.0;"/><polygon fill="none" points="406.34,243.1201,401.3859,248.36,404.3173,254.9484,409.2714,249.7085,406.34,243.1201" style="stroke:#181818;stroke-width:1.0;"/></g><!--reverse link Meeting to Person--><g id="link_Meeting_Person"><path codeLine="16" d="M430.1086,255.0007 C432.6186,272.6607 430.49,285.0601 427.35,302.8001 " fill="none" id="Meeting-backto-Person-1" style="stroke:#181818;stroke-width:1.0;"/><polygon fill="none" points="428.42,243.1201,425.3041,249.6233,430.1086,255.0007,433.2245,248.4976,428.42,243.1201" style="stroke:#181818;stroke-width:1.0;"/></g><!--reverse link Person to Person--><g id="link_Person_Person"><path codeLine="17" d="M471.9175,305.0221 C490.4675,302.5921 489,311.5101 489,327.1201 C489,342.7301 472.62,349.3101 454.07,346.8801 " fill="none" id="Person-backto-Person" style="stroke:#181818;stroke-width:1.0;"/><polygon fill="none" points="454.07,307.3601,472.6968,310.9713,471.1382,299.073,454.07,307.3601" style="stroke:#181818;stroke-width:1.0;"/></g><!--reverse link BaseClass to Meeting--><g id="link_BaseClass_Meeting"><path codeLine="28" d="M124.1444,73.2289 C193.9044,74.9689 298.66,80.7601 336.5,103.1201 C372.24,124.2401 396.23,168.0201 408.32,195.0601 " fill="none" id="BaseClass-backto-Meeting" style="stroke:#181818;stroke-width:1.0;"/><polygon fill="none" points="106.15,72.7801,123.9948,79.2271,124.294,67.2308,106.15,72.7801" style="stroke:#181818;stroke-width:1.0;"/></g><!--reverse link BaseClass to Person--><g id="link_BaseClass_Person"><path codeLine="29" d="M42.5188,113.0262 C35.4088,154.0862 44.48,221.8301 93.5,267.1201 C133.46,304.0401 299.87,319.4101 376.92,324.2701 " fill="none" id="BaseClass-backto-Person" style="stroke:#181818;stroke-width:1.0;"/><polygon fill="none" points="45.59,95.2901,36.6068,112.0024,48.4308,114.0499,45.59,95.2901" style="stroke:#181818;stroke-width:1.0;"/></g><!--reverse link BaseClass to Person--><g id="link_BaseClass_Person"><path codeLine="30" d="M69.3889,113.0196 C76.5889,154.0796 79.48,221.8301 128.5,267.1201 C164.99,300.8401 306.95,316.5801 376.94,322.7601 " fill="none" id="BaseClass-backto-Person-1" style="stroke:#181818;stroke-width:1.0;"/><polygon fill="none" points="66.28,95.2901,63.4791,114.0559,75.2987,111.9833,66.28,95.2901" style="stroke:#181818;stroke-width:1.0;"/></g><!--reverse link BaseClass to Person--><g id="link_BaseClass_Person"><path codeLine="31" d="M123.974,75.2776 C154.044,78.2276 174.06,84.1201 202.5,103.1201 C236.34,125.7301 259.78,168.1901 271.91,194.7101 " fill="none" id="BaseClass-backto-Person-2" style="stroke:#181818;stroke-width:1.0;"/><polygon fill="none" points="106.06,73.5201,123.3882,81.2489,124.5598,69.3062,106.06,73.5201" style="stroke:#181818;stroke-width:1.0;"/></g><!--SRC=[dOzD2y8m38Rl-HK1pnCT7ZtvSHJy2y75KUpIadIWgF_TVUZGWI3cb3vvshw9L3Bcvnp0JauYALKO6xOZBPtWV3RYstDY5VBhu8DYgNGP2QkW1Mi_LYu0aakUqQ9t2PsaW8lECu239pDSaV6wxG24AhP81qRXD2tgghhWPDCLNW6Rwg_ic9EJyetiMIr81vv335ds0-vRNDu6UX_dgAKsBZu2V5EF8NnupNdUMiEExKVPa7-4XwMdp_V_cFTXNy83]--></g></svg>